<svg width="100%" height="100%" viewBox="0 0 1200 600" xmlns="http://www.w3.org/2000/svg">
  <!-- Background -->
  <rect width="100%" height="100%" fill="#f8fafc"/>
  
  <!-- Grid Pattern -->
  <pattern id="grid" x="0" y="0" width="40" height="40" patternUnits="userSpaceOnUse">
    <rect width="40" height="40" fill="none" stroke="#e2e8f0" stroke-width="1"/>
  </pattern>
  <rect width="100%" height="100%" fill="url(#grid)"/>
  
  <!-- Dashboard Elements -->
  <!-- Header -->
  <rect x="40" y="40" width="1120" height="80" rx="8" fill="#ffffff" stroke="#e2e8f0" stroke-width="2"/>
  <circle cx="100" cy="80" r="20" fill="#3b82f6"/>
  <rect x="880" y="60" width="120" height="40" rx="20" fill="#3b82f6"/>
  <rect x="1020" y="60" width="100" height="40" rx="20" fill="#dbeafe"/>
  
  <!-- Main Content -->
  <!-- Left Sidebar -->
  <rect x="40" y="160" width="280" height="400" rx="8" fill="#ffffff" stroke="#e2e8f0" stroke-width="2"/>
  <rect x="60" y="180" width="240" height="40" rx="4" fill="#f1f5f9"/>
  <rect x="60" y="240" width="240" height="40" rx="4" fill="#f1f5f9"/>
  <rect x="60" y="300" width="240" height="40" rx="4" fill="#f1f5f9"/>
  
  <!-- Main Area -->
  <rect x="360" y="160" width="800" height="190" rx="8" fill="#ffffff" stroke="#e2e8f0" stroke-width="2"/>
  <rect x="380" y="180" width="200" height="150" rx="4" fill="#dbeafe"/>
  <rect x="600" y="180" width="200" height="150" rx="4" fill="#dbeafe"/>
  <rect x="820" y="180" width="200" height="150" rx="4" fill="#dbeafe"/>
  
  <!-- Bottom Charts -->
  <rect x="360" y="370" width="520" height="190" rx="8" fill="#ffffff" stroke="#e2e8f0" stroke-width="2"/>
  <path d="M380 500 Q460 420, 540 480 T700 460 T860 440" stroke="#3b82f6" fill="none" stroke-width="3"/>
  
  <rect x="900" y="370" width="260" height="190" rx="8" fill="#ffffff" stroke="#e2e8f0" stroke-width="2"/>
  <circle cx="1030" cy="465" r="60" fill="none" stroke="#3b82f6" stroke-width="20"/>
  <circle cx="1030" cy="465" r="60" fill="none" stroke="#dbeafe" stroke-width="20" stroke-dasharray="251.2 376.8"/>
</svg>